<?xml version="1.0" encoding="UTF-8"?>
<svg xmlns="http://www.w3.org/2000/svg" xmlns:xlink="http://www.w3.org/1999/xlink" width="180px" height="53px" viewBox="0 0 180 53" version="1.1">
<defs>
<linearGradient id="linear0" gradientUnits="userSpaceOnUse" x1="-0.0000153178" y1="150" x2="296.947" y2="150" gradientTransform="matrix(0.176125,0,0,0.176667,0,0)">
<stop offset="0" style="stop-color:rgb(22.352941%,80.784314%,93.333333%);stop-opacity:1;"/>
<stop offset="0.5" style="stop-color:rgb(16.470588%,44.313725%,88.627451%);stop-opacity:1;"/>
<stop offset="1" style="stop-color:rgb(21.960784%,1.960784%,36.078431%);stop-opacity:1;"/>
</linearGradient>
</defs>
<g id="surface1">
<path style=" stroke:none;fill-rule:nonzero;fill:rgb(100%,100%,100%);fill-opacity:1;" d="M 73.109375 18.726562 C 75.484375 18.726562 77.128906 19.582031 78.140625 20.566406 C 78.992188 21.359375 79.371094 22.28125 79.371094 22.851562 C 79.371094 23.867188 78.011719 24.058594 77.917969 23.929688 C 77.253906 22.183594 75.894531 20.695312 73.140625 20.695312 C 69.980469 20.695312 67.734375 23.167969 67.734375 26.597656 C 67.734375 30.089844 69.949219 32.59375 73.140625 32.59375 C 75.863281 32.59375 77.253906 31.101562 77.917969 29.355469 C 77.980469 29.230469 79.371094 29.386719 79.371094 30.46875 C 79.371094 30.976562 78.992188 31.863281 78.140625 32.6875 C 77.160156 33.738281 75.484375 34.5625 73.078125 34.5625 C 68.652344 34.5625 65.488281 31.230469 65.488281 26.597656 C 65.488281 22.058594 68.652344 18.726562 73.109375 18.726562 Z M 73.109375 18.726562 "/>
<path style=" stroke:none;fill-rule:nonzero;fill:rgb(100%,100%,100%);fill-opacity:1;" d="M 89.113281 18.726562 C 93.570312 18.726562 96.734375 22.058594 96.734375 26.691406 C 96.734375 31.261719 93.570312 34.5625 89.082031 34.5625 C 84.558594 34.5625 81.429688 31.230469 81.429688 26.628906 C 81.429688 22.023438 84.597656 18.726562 89.113281 18.726562 Z M 89.113281 20.660156 C 85.949219 20.660156 83.640625 23.136719 83.640625 26.628906 C 83.640625 30.117188 85.949219 32.625 89.113281 32.625 C 92.242188 32.625 94.519531 30.148438 94.519531 26.691406 C 94.519531 23.195312 92.273438 20.65625 89.113281 20.65625 Z M 89.113281 20.660156 "/>
<path style=" stroke:none;fill-rule:nonzero;fill:rgb(100%,100%,100%);fill-opacity:1;" d="M 113.058594 25.289062 L 113.058594 33.222656 C 113.058594 34.050781 112.648438 34.304688 112.078125 34.304688 L 111.792969 34.304688 C 111.195312 34.304688 110.78125 34.050781 110.78125 33.222656 L 110.78125 25.480469 C 110.78125 22.5625 109.390625 20.753906 106.828125 20.753906 C 104.617188 20.753906 102.972656 21.988281 102.148438 23.800781 L 102.148438 33.222656 C 102.148438 34.050781 101.738281 34.304688 101.171875 34.304688 L 100.882812 34.304688 C 100.28125 34.304688 99.875 34.050781 99.875 33.222656 L 99.875 19.203125 C 99.875 19.136719 100.253906 18.949219 100.695312 18.949219 C 101.390625 18.949219 102.023438 19.296875 102.085938 20.851562 L 102.085938 21.742188 C 103.097656 19.933594 104.867188 18.726562 107.273438 18.726562 C 111.160156 18.726562 113.058594 21.421875 113.058594 25.289062 Z M 113.058594 25.289062 "/>
<path style=" stroke:none;fill-rule:nonzero;fill:rgb(100%,100%,100%);fill-opacity:1;" d="M 115.835938 31.445312 C 115.835938 30.652344 116.71875 30.304688 116.816406 30.335938 C 117.765625 31.699219 119.472656 32.714844 121.9375 32.714844 C 124.308594 32.714844 125.703125 31.699219 125.703125 30.207031 C 125.703125 28.429688 124.058594 28.082031 121.496094 27.511719 C 119.1875 27.035156 116.277344 26.367188 116.277344 23.292969 C 116.277344 20.59375 118.523438 18.722656 122 18.722656 C 124.4375 18.722656 126.082031 19.515625 126.933594 20.433594 C 127.265625 20.753906 127.46875 21.183594 127.503906 21.640625 C 127.503906 22.433594 126.585938 22.847656 126.523438 22.785156 C 125.703125 21.515625 124.058594 20.53125 122.03125 20.53125 C 119.722656 20.53125 118.394531 21.578125 118.394531 23.039062 C 118.394531 24.6875 119.976562 25.070312 122.476562 25.640625 C 124.941406 26.179688 127.914062 26.84375 127.914062 29.953125 C 127.914062 32.714844 125.605469 34.558594 121.90625 34.558594 C 119.441406 34.558594 117.730469 33.828125 116.75 32.96875 C 116.117188 32.429688 115.835938 31.921875 115.835938 31.445312 Z M 115.835938 31.445312 "/>
<path style=" stroke:none;fill-rule:nonzero;fill:rgb(100%,100%,100%);fill-opacity:1;" d="M 131.964844 29.796875 L 131.964844 21.007812 L 130.476562 21.007812 C 129.75 21.007812 129.496094 20.6875 129.496094 20.148438 L 129.496094 19.925781 C 129.496094 19.386719 129.75 19.070312 130.476562 19.070312 L 131.964844 19.070312 L 131.964844 16.402344 C 131.964844 15.609375 132.375 15.292969 132.976562 15.292969 L 133.226562 15.292969 C 133.828125 15.292969 134.207031 15.578125 134.207031 16.402344 L 134.207031 19.070312 L 138.042969 19.070312 C 138.738281 19.070312 139.023438 19.355469 139.023438 19.925781 L 139.023438 20.117188 C 139.023438 20.6875 138.738281 21.007812 138.011719 21.007812 L 134.183594 21.007812 L 134.183594 29.445312 C 134.183594 31.667969 134.847656 32.621094 136.429688 32.621094 C 136.871094 32.632812 137.3125 32.527344 137.703125 32.324219 C 138.097656 32.117188 138.429688 31.816406 138.675781 31.445312 C 138.769531 31.382812 139.308594 31.699219 139.308594 32.492188 C 139.300781 32.71875 139.246094 32.941406 139.148438 33.140625 C 139.050781 33.34375 138.910156 33.523438 138.738281 33.667969 C 138.203125 34.175781 137.347656 34.558594 136.113281 34.558594 C 133.324219 34.558594 131.964844 33.007812 131.964844 29.796875 Z M 131.964844 29.796875 "/>
<path style=" stroke:none;fill-rule:nonzero;fill:rgb(100%,100%,100%);fill-opacity:1;" d="M 148.34375 18.726562 C 152.550781 18.726562 155.269531 21.710938 155.269531 26.183594 L 155.269531 26.40625 C 155.269531 26.945312 155.050781 27.132812 154.480469 27.132812 L 143.0625 27.132812 C 143.058594 27.285156 143.070312 27.433594 143.09375 27.578125 C 143.378906 30.625 145.5625 32.65625 148.597656 32.65625 C 151.414062 32.65625 152.742188 31.324219 153.5 29.863281 C 153.625 29.800781 154.796875 30.054688 154.796875 31.070312 C 154.796875 31.546875 154.417969 32.277344 153.59375 32.941406 C 152.644531 33.769531 150.90625 34.5625 148.566406 34.5625 C 143.980469 34.5625 140.882812 31.355469 140.882812 26.722656 C 140.890625 22.117188 144.011719 18.726562 148.34375 18.726562 Z M 148.34375 20.566406 C 145.59375 20.566406 143.539062 22.597656 143.125 25.484375 L 153.027344 25.484375 C 152.90625 22.535156 151.097656 20.5625 148.34375 20.5625 Z M 148.34375 20.566406 "/>
<path style=" stroke:none;fill-rule:nonzero;fill:rgb(100%,100%,100%);fill-opacity:1;" d="M 158.496094 33.222656 L 158.496094 12.816406 C 158.496094 12.722656 158.875 12.5625 159.320312 12.5625 C 160.046875 12.5625 160.773438 12.945312 160.773438 14.59375 L 160.773438 33.222656 C 160.773438 34.050781 160.363281 34.304688 159.761719 34.304688 L 159.507812 34.304688 C 158.914062 34.304688 158.496094 34.050781 158.496094 33.222656 Z M 158.496094 33.222656 "/>
<path style=" stroke:none;fill-rule:nonzero;fill:rgb(100%,100%,100%);fill-opacity:1;" d="M 165.136719 33.222656 L 165.136719 12.816406 C 165.136719 12.722656 165.515625 12.5625 165.957031 12.5625 C 166.6875 12.5625 167.414062 12.945312 167.414062 14.59375 L 167.414062 33.222656 C 167.414062 34.050781 167.003906 34.304688 166.402344 34.304688 L 166.148438 34.304688 C 165.546875 34.304688 165.136719 34.050781 165.136719 33.222656 Z M 165.136719 33.222656 "/>
<path style=" stroke:none;fill-rule:nonzero;fill:rgb(100%,100%,100%);fill-opacity:1;" d="M 180 20.371094 C 180 21.292969 179.367188 21.671875 179.304688 21.609375 C 178.925781 21.226562 178.324219 20.972656 177.5 20.972656 C 175.035156 20.972656 173.894531 23.417969 173.894531 27.226562 L 173.894531 33.222656 C 173.894531 34.015625 173.484375 34.304688 172.917969 34.304688 L 172.664062 34.304688 C 172.03125 34.304688 171.621094 34.050781 171.621094 33.222656 L 171.621094 19.203125 C 171.621094 19.136719 171.96875 18.949219 172.441406 18.949219 C 173.074219 18.949219 173.644531 19.265625 173.769531 20.472656 C 173.800781 21.011719 173.832031 21.550781 173.832031 22.121094 C 174.433594 19.835938 175.824219 18.726562 177.753906 18.726562 C 179.113281 18.726562 180 19.386719 180 20.371094 Z M 180 20.371094 "/>
<path style=" stroke:none;fill-rule:nonzero;fill:url(#linear0);" d="M 51.414062 30.527344 C 51.273438 30.5 51.125 30.496094 50.980469 30.523438 C 50.839844 30.554688 50.703125 30.609375 50.582031 30.6875 C 50.460938 30.769531 50.355469 30.875 50.277344 30.996094 C 50.195312 31.117188 50.136719 31.25 50.109375 31.394531 C 49.15625 36.042969 46.863281 40.308594 43.519531 43.664062 C 40.175781 47.023438 35.921875 49.320312 31.292969 50.277344 C 28.074219 50.933594 24.757812 50.933594 21.539062 50.277344 C 19.980469 49.964844 18.457031 49.496094 16.992188 48.878906 C 15.550781 48.265625 14.175781 47.515625 12.878906 46.640625 C 8.988281 44 5.941406 40.289062 4.109375 35.949219 C 3.492188 34.480469 3.019531 32.957031 2.703125 31.394531 C 2.046875 28.164062 2.046875 24.835938 2.703125 21.605469 C 3.65625 16.953125 5.945312 12.6875 9.292969 9.328125 C 12.640625 5.972656 16.894531 3.675781 21.527344 2.71875 C 24.746094 2.066406 28.0625 2.066406 31.28125 2.71875 C 37.472656 4.007812 42.921875 7.671875 46.460938 12.933594 C 46.625 13.175781 46.878906 13.347656 47.167969 13.402344 C 47.457031 13.457031 47.753906 13.398438 47.996094 13.234375 C 48.242188 13.066406 48.410156 12.8125 48.464844 12.523438 C 48.519531 12.234375 48.460938 11.933594 48.296875 11.6875 C 45.433594 7.425781 41.398438 4.089844 36.683594 2.082031 C 35.085938 1.402344 33.425781 0.886719 31.726562 0.535156 C 28.214844 -0.179688 24.597656 -0.179688 21.085938 0.535156 C 16.023438 1.578125 11.375 4.089844 7.722656 7.757812 C 4.070312 11.425781 1.566406 16.085938 0.527344 21.167969 C -0.1875 24.691406 -0.1875 28.324219 0.527344 31.847656 C 1.222656 35.238281 2.570312 38.457031 4.5 41.324219 C 7.371094 45.582031 11.410156 48.917969 16.128906 50.917969 C 17.726562 51.59375 19.386719 52.113281 21.085938 52.460938 C 24.597656 53.179688 28.21875 53.179688 31.730469 52.460938 C 35.109375 51.769531 38.316406 50.414062 41.175781 48.472656 C 43.984375 46.566406 46.40625 44.136719 48.304688 41.316406 C 50.234375 38.449219 51.585938 35.230469 52.277344 31.839844 C 52.308594 31.695312 52.308594 31.546875 52.28125 31.40625 C 52.253906 31.261719 52.199219 31.125 52.117188 31.003906 C 52.039062 30.882812 51.933594 30.777344 51.8125 30.695312 C 51.691406 30.613281 51.558594 30.554688 51.414062 30.527344 Z M 40.453125 16.988281 C 39.234375 15.183594 37.683594 13.625 35.882812 12.40625 C 34.050781 11.160156 31.996094 10.292969 29.832031 9.847656 C 27.582031 9.390625 25.261719 9.390625 23.011719 9.847656 C 20.328125 10.40625 17.816406 11.609375 15.695312 13.355469 C 13.574219 15.101562 11.90625 17.339844 10.835938 19.875 C 10.402344 20.902344 10.074219 21.96875 9.851562 23.0625 C 9.394531 25.320312 9.394531 27.648438 9.851562 29.90625 C 10.074219 31 10.402344 32.066406 10.835938 33.09375 C 11.265625 34.105469 11.785156 35.070312 12.398438 35.980469 C 13.003906 36.878906 13.695312 37.71875 14.460938 38.492188 C 16.003906 40.039062 17.832031 41.273438 19.839844 42.128906 C 22.429688 43.230469 25.257812 43.664062 28.058594 43.390625 C 30.863281 43.117188 33.550781 42.144531 35.886719 40.5625 C 36.785156 39.953125 37.621094 39.261719 38.390625 38.492188 C 39.15625 37.71875 39.847656 36.878906 40.453125 35.980469 C 41.066406 35.070312 41.589844 34.105469 42.015625 33.09375 C 42.074219 32.957031 42.109375 32.8125 42.113281 32.664062 C 42.117188 32.515625 42.089844 32.367188 42.039062 32.230469 C 41.984375 32.089844 41.902344 31.964844 41.800781 31.859375 C 41.695312 31.753906 41.574219 31.667969 41.4375 31.609375 C 41.300781 31.550781 41.15625 31.523438 41.007812 31.523438 C 40.859375 31.523438 40.710938 31.550781 40.578125 31.609375 C 40.441406 31.667969 40.316406 31.75 40.214844 31.859375 C 40.109375 31.964844 40.03125 32.089844 39.976562 32.230469 C 39.234375 33.980469 38.164062 35.574219 36.824219 36.917969 C 36.15625 37.589844 35.425781 38.191406 34.644531 38.722656 C 33.054688 39.800781 31.265625 40.554688 29.386719 40.941406 C 27.429688 41.339844 25.414062 41.339844 23.457031 40.941406 C 21.578125 40.554688 19.789062 39.800781 18.199219 38.722656 C 16.636719 37.660156 15.289062 36.304688 14.230469 34.734375 C 13.15625 33.140625 12.402344 31.347656 12.015625 29.460938 C 11.417969 26.53125 11.714844 23.492188 12.875 20.738281 C 13.613281 18.988281 14.683594 17.394531 16.027344 16.046875 C 16.691406 15.378906 17.421875 14.777344 18.199219 14.246094 C 19.789062 13.164062 21.574219 12.410156 23.457031 12.023438 C 25.414062 11.625 27.429688 11.625 29.386719 12.023438 C 31.269531 12.410156 33.054688 13.164062 34.644531 14.246094 C 36.210938 15.308594 37.558594 16.660156 38.617188 18.234375 C 38.78125 18.476562 39.035156 18.644531 39.324219 18.703125 C 39.613281 18.757812 39.910156 18.695312 40.152344 18.53125 C 40.398438 18.367188 40.566406 18.113281 40.621094 17.824219 C 40.675781 17.535156 40.617188 17.234375 40.453125 16.988281 Z M 15.785156 21.976562 C 16.660156 19.90625 18.113281 18.136719 19.96875 16.875 C 22.507812 15.160156 25.621094 14.527344 28.625 15.117188 C 31.628906 15.703125 34.28125 17.460938 35.992188 20.007812 C 36.074219 20.128906 36.179688 20.230469 36.300781 20.3125 C 36.421875 20.394531 36.554688 20.449219 36.699219 20.476562 C 36.84375 20.503906 36.988281 20.503906 37.132812 20.472656 C 37.273438 20.445312 37.410156 20.386719 37.527344 20.304688 C 37.648438 20.222656 37.753906 20.121094 37.832031 20 C 37.914062 19.875 37.96875 19.738281 37.996094 19.597656 C 38.023438 19.453125 38.023438 19.304688 37.992188 19.164062 C 37.964844 19.019531 37.90625 18.882812 37.828125 18.765625 C 36.335938 16.546875 34.238281 14.808594 31.78125 13.761719 C 30.949219 13.410156 30.085938 13.140625 29.199219 12.957031 C 27.371094 12.585938 25.484375 12.585938 23.65625 12.957031 C 21.898438 13.320312 20.226562 14.027344 18.734375 15.035156 C 16.523438 16.53125 14.789062 18.640625 13.746094 21.105469 C 13.394531 21.941406 13.125 22.808594 12.945312 23.699219 C 12.398438 26.378906 12.65625 29.160156 13.6875 31.695312 C 14.714844 34.226562 16.472656 36.394531 18.730469 37.925781 C 20.21875 38.9375 21.890625 39.644531 23.652344 40.003906 C 25.480469 40.378906 27.363281 40.378906 29.191406 40.003906 C 30.953125 39.644531 32.625 38.9375 34.113281 37.925781 C 37.097656 35.910156 39.175781 32.796875 39.898438 29.261719 C 39.929688 29.117188 39.929688 28.972656 39.902344 28.828125 C 39.875 28.683594 39.820312 28.546875 39.738281 28.425781 C 39.660156 28.304688 39.554688 28.199219 39.433594 28.117188 C 39.316406 28.035156 39.179688 27.980469 39.035156 27.949219 C 38.894531 27.921875 38.746094 27.917969 38.605469 27.945312 C 38.460938 27.976562 38.328125 28.03125 38.207031 28.109375 C 38.082031 28.191406 37.980469 28.292969 37.898438 28.414062 C 37.816406 28.535156 37.757812 28.671875 37.730469 28.816406 C 37.273438 31.035156 36.179688 33.070312 34.582031 34.671875 C 34.058594 35.195312 33.488281 35.667969 32.875 36.085938 C 32.257812 36.503906 31.601562 36.863281 30.914062 37.152344 C 30.21875 37.449219 29.492188 37.675781 28.75 37.828125 C 27.210938 38.140625 25.628906 38.140625 24.09375 37.828125 C 23.351562 37.675781 22.625 37.453125 21.929688 37.15625 C 21.242188 36.863281 20.585938 36.507812 19.96875 36.089844 C 19.355469 35.671875 18.785156 35.199219 18.261719 34.671875 C 16.636719 33.042969 15.535156 30.964844 15.09375 28.703125 C 14.652344 26.441406 14.894531 24.101562 15.785156 21.976562 Z M 45.382812 14.996094 C 45.503906 14.917969 45.605469 14.8125 45.6875 14.691406 C 45.765625 14.566406 45.820312 14.433594 45.847656 14.289062 C 45.875 14.144531 45.875 13.996094 45.847656 13.855469 C 45.816406 13.710938 45.761719 13.578125 45.679688 13.457031 C 43.15625 9.707031 39.605469 6.769531 35.453125 5.003906 C 34.046875 4.410156 32.585938 3.957031 31.089844 3.648438 C 28 3.019531 24.8125 3.019531 21.722656 3.648438 C 18.75 4.261719 15.925781 5.453125 13.410156 7.15625 C 9.59375 9.742188 6.628906 13.410156 4.886719 17.6875 C 3.148438 21.96875 2.714844 26.671875 3.636719 31.199219 C 4.246094 34.183594 5.433594 37.019531 7.132812 39.542969 C 9.476562 43.023438 12.714844 45.808594 16.503906 47.597656 C 20.289062 49.386719 24.488281 50.117188 28.65625 49.710938 C 32.824219 49.304688 36.804688 47.777344 40.179688 45.289062 C 43.550781 42.800781 46.195312 39.445312 47.828125 35.574219 C 47.941406 35.304688 47.941406 35 47.832031 34.726562 C 47.777344 34.589844 47.695312 34.46875 47.59375 34.363281 C 47.492188 34.257812 47.371094 34.175781 47.238281 34.121094 C 46.96875 34.003906 46.660156 34.003906 46.390625 34.113281 C 46.117188 34.222656 45.902344 34.4375 45.785156 34.710938 C 43.648438 39.769531 39.636719 43.800781 34.59375 45.941406 C 33.320312 46.484375 31.996094 46.894531 30.640625 47.171875 C 27.84375 47.742188 24.960938 47.742188 22.164062 47.171875 C 19.472656 46.621094 16.917969 45.542969 14.644531 44 C 11.503906 41.871094 8.996094 38.933594 7.382812 35.492188 C 5.769531 32.054688 5.113281 28.242188 5.480469 24.457031 C 5.84375 20.671875 7.222656 17.058594 9.464844 13.996094 C 11.707031 10.933594 14.734375 8.53125 18.21875 7.050781 C 19.496094 6.511719 20.820312 6.097656 22.171875 5.824219 C 24.972656 5.253906 27.855469 5.253906 30.652344 5.824219 C 32.007812 6.097656 33.332031 6.511719 34.605469 7.050781 C 38.363281 8.648438 41.574219 11.304688 43.859375 14.699219 C 44.023438 14.941406 44.273438 15.105469 44.558594 15.160156 C 44.84375 15.21875 45.140625 15.160156 45.382812 14.996094 Z M 42.777344 16.757812 C 42.894531 16.675781 43 16.570312 43.078125 16.449219 C 43.160156 16.328125 43.214844 16.191406 43.242188 16.046875 C 43.269531 15.90625 43.269531 15.757812 43.242188 15.613281 C 43.210938 15.472656 43.15625 15.335938 43.074219 15.214844 C 40.667969 11.640625 37.183594 8.933594 33.132812 7.492188 C 29.082031 6.054688 24.675781 5.957031 20.5625 7.21875 C 16.453125 8.480469 12.855469 11.03125 10.296875 14.5 C 7.742188 17.96875 6.363281 22.167969 6.363281 26.484375 C 6.363281 30.796875 7.742188 34.996094 10.296875 38.464844 C 12.855469 41.933594 16.453125 44.484375 20.5625 45.746094 C 24.675781 47.007812 29.082031 46.910156 33.132812 45.472656 C 37.183594 44.03125 40.667969 41.324219 43.074219 37.75 C 43.238281 37.503906 43.296875 37.207031 43.242188 36.917969 C 43.1875 36.628906 43.019531 36.371094 42.777344 36.207031 C 42.53125 36.042969 42.234375 35.980469 41.945312 36.035156 C 41.65625 36.09375 41.402344 36.261719 41.238281 36.503906 C 38.628906 40.398438 34.601562 43.105469 30.023438 44.046875 C 27.648438 44.53125 25.195312 44.53125 22.820312 44.046875 C 20.535156 43.578125 18.363281 42.660156 16.433594 41.351562 C 14.53125 40.058594 12.890625 38.414062 11.605469 36.503906 C 10.296875 34.566406 9.382812 32.386719 8.917969 30.09375 C 8.433594 27.707031 8.433594 25.25 8.917969 22.863281 C 9.382812 20.570312 10.296875 18.390625 11.605469 16.453125 C 13.542969 13.570312 16.273438 11.3125 19.464844 9.957031 C 20.546875 9.496094 21.667969 9.148438 22.820312 8.910156 C 25.195312 8.429688 27.648438 8.429688 30.023438 8.910156 C 32.308594 9.382812 34.480469 10.296875 36.410156 11.609375 C 38.3125 12.898438 39.953125 14.542969 41.238281 16.453125 C 41.320312 16.574219 41.421875 16.679688 41.546875 16.761719 C 41.664062 16.839844 41.800781 16.898438 41.945312 16.925781 C 42.085938 16.953125 42.234375 16.953125 42.375 16.925781 C 42.519531 16.894531 42.65625 16.839844 42.777344 16.757812 Z M 42.777344 16.757812 "/>
<path style=" stroke:none;fill-rule:nonzero;fill:rgb(100%,100%,100%);fill-opacity:1;" d="M 3.1875 6.355469 C 4.933594 6.355469 6.351562 4.933594 6.351562 3.179688 C 6.351562 1.425781 4.933594 0.0078125 3.1875 0.0078125 C 1.441406 0.0078125 0.0234375 1.425781 0.0234375 3.179688 C 0.0234375 4.933594 1.441406 6.355469 3.1875 6.355469 Z M 3.1875 6.355469 "/>
</g>
</svg>
